<svg width="25" height="25" viewBox="0 0 25 25" fill="none" xmlns="http://www.w3.org/2000/svg">
<mask id="mask0_358_135" style="mask-type:alpha" maskUnits="userSpaceOnUse" x="0" y="0" width="25" height="25">
<rect x="0.903137" y="0.515991" width="24" height="24" fill="#D9D9D9"/>
</mask>
<g mask="url(#mask0_358_135)">
<path d="M5.90314 21.516V5.51599C5.90314 4.96599 6.09897 4.49516 6.49064 4.10349C6.8823 3.71182 7.35314 3.51599 7.90314 3.51599H14.9031C14.5698 4.01599 14.3198 4.49516 14.1531 4.95349C13.9865 5.41182 13.9031 5.93266 13.9031 6.51599C13.9031 7.71599 14.2823 8.77432 15.0406 9.69099C15.799 10.6077 16.7531 11.1827 17.9031 11.416C18.2865 11.466 18.6198 11.491 18.9031 11.491C19.1865 11.491 19.5198 11.466 19.9031 11.416V21.516L12.9031 18.516L5.90314 21.516ZM17.9031 9.51599V7.51599H15.9031V5.51599H17.9031V3.51599H19.9031V5.51599H21.9031V7.51599H19.9031V9.51599H17.9031Z" fill="#1C1B1F"/>
</g>
</svg>
