<svg width="25" height="25" viewBox="0 0 25 25" fill="none" xmlns="http://www.w3.org/2000/svg">
<mask id="mask0_358_117" style="mask-type:alpha" maskUnits="userSpaceOnUse" x="0" y="0" width="25" height="25">
<rect x="0.903137" y="0.515991" width="24" height="24" fill="#D9D9D9"/>
</mask>
<g mask="url(#mask0_358_117)">
<path d="M5.90314 21.516C5.35314 21.516 4.8823 21.3202 4.49064 20.9285C4.09897 20.5368 3.90314 20.066 3.90314 19.516V5.51599C3.90314 4.96599 4.09897 4.49516 4.49064 4.10349C4.8823 3.71182 5.35314 3.51599 5.90314 3.51599H11.9031V5.51599H5.90314V19.516H19.9031V13.516H21.9031V19.516C21.9031 20.066 21.7073 20.5368 21.3156 20.9285C20.924 21.3202 20.4531 21.516 19.9031 21.516H5.90314ZM16.9031 11.516V8.51599H13.9031V6.51599H16.9031V3.51599H18.9031V6.51599H21.9031V8.51599H18.9031V11.516H16.9031Z" fill="#1C1B1F"/>
</g>
</svg>
