<svg width="25" height="25" viewBox="0 0 25 25" fill="none" xmlns="http://www.w3.org/2000/svg">
<mask id="mask0_363_117" style="mask-type:alpha" maskUnits="userSpaceOnUse" x="0" y="0" width="25" height="25">
<rect x="0.503601" y="0.855896" width="24" height="24" fill="#D9D9D9"/>
</mask>
<g mask="url(#mask0_363_117)">
<path d="M10.8536 17.8559L16.5036 12.2059L15.0536 10.7559L10.8286 14.9809L8.7286 12.8809L7.3036 14.3059L10.8536 17.8559ZM7.0036 20.8559C5.48693 20.8559 4.1911 20.3309 3.1161 19.2809C2.0411 18.2309 1.5036 16.9476 1.5036 15.4309C1.5036 14.1309 1.89527 12.9726 2.6786 11.9559C3.46193 10.9392 4.48693 10.2892 5.7536 10.0059C6.17027 8.47256 7.0036 7.2309 8.2536 6.2809C9.5036 5.3309 10.9203 4.8559 12.5036 4.8559C14.4536 4.8559 16.1078 5.53506 17.4661 6.8934C18.8244 8.25173 19.5036 9.9059 19.5036 11.8559C20.6536 11.9892 21.6078 12.4851 22.3661 13.3434C23.1244 14.2017 23.5036 15.2059 23.5036 16.3559C23.5036 17.6059 23.0661 18.6684 22.1911 19.5434C21.3161 20.4184 20.2536 20.8559 19.0036 20.8559H7.0036ZM7.0036 18.8559H19.0036C19.7036 18.8559 20.2953 18.6142 20.7786 18.1309C21.2619 17.6476 21.5036 17.0559 21.5036 16.3559C21.5036 15.6559 21.2619 15.0642 20.7786 14.5809C20.2953 14.0976 19.7036 13.8559 19.0036 13.8559H17.5036V11.8559C17.5036 10.4726 17.0161 9.2934 16.0411 8.3184C15.0661 7.3434 13.8869 6.8559 12.5036 6.8559C11.1203 6.8559 9.9411 7.3434 8.9661 8.3184C7.9911 9.2934 7.5036 10.4726 7.5036 11.8559H7.0036C6.03693 11.8559 5.21193 12.1976 4.5286 12.8809C3.84527 13.5642 3.5036 14.3892 3.5036 15.3559C3.5036 16.3226 3.84527 17.1476 4.5286 17.8309C5.21193 18.5142 6.03693 18.8559 7.0036 18.8559Z" fill="#1C1B1F"/>
</g>
</svg>
