<svg width="25" height="25" viewBox="0 0 25 25" fill="none" xmlns="http://www.w3.org/2000/svg">
<mask id="mask0_356_127" style="mask-type:alpha" maskUnits="userSpaceOnUse" x="0" y="0" width="25" height="25">
<rect x="0.886261" y="0.072876" width="24" height="24" fill="#D9D9D9"/>
</mask>
<g mask="url(#mask0_356_127)">
<path d="M2.88626 24.0729V20.0729H22.8863V24.0729H2.88626ZM6.88626 16.0729H8.28626L16.0863 8.29788L14.6613 6.87288L6.88626 14.6729V16.0729ZM4.88626 18.0729V13.8229L16.0863 2.64788C16.2696 2.46454 16.4821 2.32288 16.7238 2.22288C16.9654 2.12288 17.2196 2.07288 17.4863 2.07288C17.7529 2.07288 18.0113 2.12288 18.2613 2.22288C18.5113 2.32288 18.7363 2.47288 18.9363 2.67288L20.3113 4.07288C20.5113 4.25621 20.6571 4.47288 20.7488 4.72288C20.8404 4.97288 20.8863 5.23121 20.8863 5.49788C20.8863 5.74788 20.8404 5.99371 20.7488 6.23538C20.6571 6.47704 20.5113 6.69788 20.3113 6.89788L9.13626 18.0729H4.88626Z" fill="#1C1B1F"/>
</g>
</svg>
