<svg width="25" height="25" viewBox="0 0 25 25" fill="none" xmlns="http://www.w3.org/2000/svg">
<mask id="mask0_363_123" style="mask-type:alpha" maskUnits="userSpaceOnUse" x="0" y="0" width="25" height="25">
<rect x="0.503601" y="0.855896" width="24" height="24" fill="#D9D9D9"/>
</mask>
<g mask="url(#mask0_363_123)">
<path d="M9.9036 16.8559L12.5036 14.2559L15.1036 16.8559L16.5036 15.4559L13.9036 12.8559L16.5036 10.2559L15.1036 8.8559L12.5036 11.4559L9.9036 8.8559L8.5036 10.2559L11.1036 12.8559L8.5036 15.4559L9.9036 16.8559ZM4.5036 20.8559C3.9536 20.8559 3.48277 20.6601 3.0911 20.2684C2.69943 19.8767 2.5036 19.4059 2.5036 18.8559V6.8559C2.5036 6.3059 2.69943 5.83506 3.0911 5.4434C3.48277 5.05173 3.9536 4.8559 4.5036 4.8559H20.5036C21.0536 4.8559 21.5244 5.05173 21.9161 5.4434C22.3078 5.83506 22.5036 6.3059 22.5036 6.8559V18.8559C22.5036 19.4059 22.3078 19.8767 21.9161 20.2684C21.5244 20.6601 21.0536 20.8559 20.5036 20.8559H4.5036ZM4.5036 18.8559H20.5036V6.8559H4.5036V18.8559Z" fill="#1C1B1F"/>
</g>
</svg>
