<svg width="25" height="25" viewBox="0 0 25 25" fill="none" xmlns="http://www.w3.org/2000/svg">
<mask id="mask0_335_121" style="mask-type:alpha" maskUnits="userSpaceOnUse" x="0" y="0" width="25" height="25">
<rect x="0.0996552" y="0.514648" width="24" height="24" fill="#D9D9D9"/>
</mask>
<g mask="url(#mask0_335_121)">
<path d="M5.09966 21.5146C4.54966 21.5146 4.07882 21.3188 3.68716 20.9271C3.29549 20.5355 3.09966 20.0646 3.09966 19.5146V5.51465C3.09966 4.96465 3.29549 4.49382 3.68716 4.10215C4.07882 3.71048 4.54966 3.51465 5.09966 3.51465H12.0997V5.51465H5.09966V19.5146H12.0997V21.5146H5.09966ZM16.0997 17.5146L14.7247 16.0646L17.2747 13.5146H9.09966V11.5146H17.2747L14.7247 8.96465L16.0997 7.51465L21.0997 12.5146L16.0997 17.5146Z" fill="#1C1B1F"/>
</g>
</svg>
